<svg xmlns="http://www.w3.org/2000/svg" xmlns:xlink="http://www.w3.org/1999/xlink" width="500" zoomAndPan="magnify" viewBox="0 0 375 374.999991" height="500" preserveAspectRatio="xMidYMid meet" version="1.0"><defs><clipPath id="a5aa363ea5"><path d="M 187.5 0 C 83.945312 0 0 83.945312 0 187.5 C 0 291.054688 83.945312 375 187.5 375 C 291.054688 375 375 291.054688 375 187.5 C 375 83.945312 291.054688 0 187.5 0 Z M 187.5 0 " clip-rule="nonzero"/></clipPath><clipPath id="34b7098819"><path d="M 0 0 L 375 0 L 375 375 L 0 375 Z M 0 0 " clip-rule="nonzero"/></clipPath><clipPath id="cca2dad4ac"><path d="M 187.5 0 C 83.945312 0 0 83.945312 0 187.5 C 0 291.054688 83.945312 375 187.5 375 C 291.054688 375 375 291.054688 375 187.5 C 375 83.945312 291.054688 0 187.5 0 Z M 187.5 0 " clip-rule="nonzero"/></clipPath><clipPath id="cc51ea5523"><rect x="0" width="375" y="0" height="375"/></clipPath><clipPath id="4dd4816abe"><path d="M 33.121094 187.144531 L 98.578125 187.144531 L 98.578125 197.203125 L 33.121094 197.203125 Z M 33.121094 187.144531 " clip-rule="nonzero"/></clipPath><clipPath id="bc1071b583"><path d="M 0.121094 0.144531 L 65.578125 0.144531 L 65.578125 10.203125 L 0.121094 10.203125 Z M 0.121094 0.144531 " clip-rule="nonzero"/></clipPath><clipPath id="b733ffbf98"><rect x="0" width="66" y="0" height="11"/></clipPath><clipPath id="202a895934"><path d="M 44.039062 203.453125 L 87.65625 203.453125 L 87.65625 211.503906 L 44.039062 211.503906 Z M 44.039062 203.453125 " clip-rule="nonzero"/></clipPath><clipPath id="5facebdab6"><path d="M 0.0390625 0.453125 L 43.65625 0.453125 L 43.65625 8.503906 L 0.0390625 8.503906 Z M 0.0390625 0.453125 " clip-rule="nonzero"/></clipPath><clipPath id="c7bff8c8fc"><rect x="0" width="44" y="0" height="9"/></clipPath><clipPath id="47645de68b"><path d="M 54.964844 217.71875 L 76.734375 217.71875 L 76.734375 223.765625 L 54.964844 223.765625 Z M 54.964844 217.71875 " clip-rule="nonzero"/></clipPath><clipPath id="9a3296b736"><path d="M 0.964844 0.71875 L 22.734375 0.71875 L 22.734375 6.765625 L 0.964844 6.765625 Z M 0.964844 0.71875 " clip-rule="nonzero"/></clipPath><clipPath id="5edf7a1c98"><rect x="0" width="23" y="0" height="7"/></clipPath><clipPath id="2945408d7f"><path d="M 0.386719 1.128906 L 131.308594 1.128906 L 131.308594 176.03125 L 0.386719 176.03125 Z M 0.386719 1.128906 " clip-rule="nonzero"/></clipPath><clipPath id="b7ba8c47a8"><path d="M 65.847656 1.46875 L 0.386719 66.929688 L 33.117188 66.929688 L 33.117188 176.03125 L 98.578125 176.03125 L 98.578125 66.929688 L 131.308594 66.929688 Z M 65.847656 1.46875 " clip-rule="nonzero"/></clipPath><clipPath id="ef141c2552"><path d="M 0.386719 0.441406 L 131.308594 0.441406 L 131.308594 175.03125 L 0.386719 175.03125 Z M 0.386719 0.441406 " clip-rule="nonzero"/></clipPath><clipPath id="d4f2478508"><path d="M 65.847656 0.46875 L 0.386719 65.929688 L 33.117188 65.929688 L 33.117188 175.03125 L 98.578125 175.03125 L 98.578125 65.929688 L 131.308594 65.929688 Z M 65.847656 0.46875 " clip-rule="nonzero"/></clipPath><clipPath id="949f9e0cc1"><rect x="0" width="132" y="0" height="176"/></clipPath><clipPath id="9f2546f507"><path d="M 106.414062 105.808594 L 171.871094 105.808594 L 171.871094 115.867188 L 106.414062 115.867188 Z M 106.414062 105.808594 " clip-rule="nonzero"/></clipPath><clipPath id="1f776ed884"><path d="M 0.414062 0.808594 L 65.871094 0.808594 L 65.871094 10.867188 L 0.414062 10.867188 Z M 0.414062 0.808594 " clip-rule="nonzero"/></clipPath><clipPath id="b38477dea2"><rect x="0" width="66" y="0" height="11"/></clipPath><clipPath id="7bbecd836d"><path d="M 117.339844 91.5 L 160.957031 91.5 L 160.957031 99.550781 L 117.339844 99.550781 Z M 117.339844 91.5 " clip-rule="nonzero"/></clipPath><clipPath id="89a9b88897"><path d="M 0.339844 0.5 L 43.957031 0.5 L 43.957031 8.550781 L 0.339844 8.550781 Z M 0.339844 0.5 " clip-rule="nonzero"/></clipPath><clipPath id="ec418540c3"><rect x="0" width="44" y="0" height="9"/></clipPath><clipPath id="f7dcbe8c53"><path d="M 128.261719 79.234375 L 150.027344 79.234375 L 150.027344 85.285156 L 128.261719 85.285156 Z M 128.261719 79.234375 " clip-rule="nonzero"/></clipPath><clipPath id="8c80462675"><path d="M 0.261719 0.234375 L 22.027344 0.234375 L 22.027344 6.285156 L 0.261719 6.285156 Z M 0.261719 0.234375 " clip-rule="nonzero"/></clipPath><clipPath id="a9305b40b9"><rect x="0" width="23" y="0" height="7"/></clipPath><clipPath id="af3c054216"><path d="M 73.6875 126.96875 L 204.609375 126.96875 L 204.609375 301.871094 L 73.6875 301.871094 Z M 73.6875 126.96875 " clip-rule="nonzero"/></clipPath><clipPath id="3c88a07328"><path d="M 139.148438 301.527344 L 204.609375 236.066406 L 171.878906 236.066406 L 171.878906 126.96875 L 106.417969 126.96875 L 106.417969 236.066406 L 73.6875 236.066406 Z M 139.148438 301.527344 " clip-rule="nonzero"/></clipPath><clipPath id="33fb51652c"><path d="M 0.6875 0.96875 L 131.609375 0.96875 L 131.609375 175.679688 L 0.6875 175.679688 Z M 0.6875 0.96875 " clip-rule="nonzero"/></clipPath><clipPath id="ca19385477"><path d="M 66.148438 175.527344 L 131.609375 110.066406 L 98.878906 110.066406 L 98.878906 0.96875 L 33.417969 0.96875 L 33.417969 110.066406 L 0.6875 110.066406 Z M 66.148438 175.527344 " clip-rule="nonzero"/></clipPath><clipPath id="aec1c4c758"><rect x="0" width="132" y="0" height="176"/></clipPath><clipPath id="35ebefe454"><rect x="0" width="205" y="0" height="302"/></clipPath></defs><g clip-path="url(#a5aa363ea5)"><g transform="matrix(1, 0, 0, 1, 0, 0)"><g clip-path="url(#cc51ea5523)"><g clip-path="url(#34b7098819)"><g clip-path="url(#cca2dad4ac)"><rect x="-82.5" width="540" fill="#fb2c36" height="539.999987" y="-82.499998" fill-opacity="1"/></g></g></g></g></g><g transform="matrix(1, 0, 0, 1, 85, 36)"><g clip-path="url(#35ebefe454)"><g clip-path="url(#4dd4816abe)"><g transform="matrix(1, 0, 0, 1, 33, 187)"><g clip-path="url(#b733ffbf98)"><g clip-path="url(#bc1071b583)"><path fill="#ffffff" d="M 0.121094 0.144531 L 65.582031 0.144531 L 65.582031 10.203125 L 0.121094 10.203125 Z M 0.121094 0.144531 " fill-opacity="1" fill-rule="nonzero"/></g></g></g></g><g clip-path="url(#202a895934)"><g transform="matrix(1, 0, 0, 1, 44, 203)"><g clip-path="url(#c7bff8c8fc)"><g clip-path="url(#5facebdab6)"><path fill="#ffffff" d="M 0.0390625 0.453125 L 43.660156 0.453125 L 43.660156 8.503906 L 0.0390625 8.503906 Z M 0.0390625 0.453125 " fill-opacity="1" fill-rule="nonzero"/></g></g></g></g><g clip-path="url(#47645de68b)"><g transform="matrix(1, 0, 0, 1, 54, 217)"><g clip-path="url(#5edf7a1c98)"><g clip-path="url(#9a3296b736)"><path fill="#ffffff" d="M 0.964844 0.71875 L 22.722656 0.71875 L 22.722656 6.765625 L 0.964844 6.765625 Z M 0.964844 0.71875 " fill-opacity="1" fill-rule="nonzero"/></g></g></g></g><g clip-path="url(#2945408d7f)"><g clip-path="url(#b7ba8c47a8)"><g transform="matrix(1, 0, 0, 1, 0, 1)"><g clip-path="url(#949f9e0cc1)"><g clip-path="url(#ef141c2552)"><g clip-path="url(#d4f2478508)"><path fill="#ffffff" d="M 0.386719 175.03125 L 0.386719 0.640625 L 131.308594 0.640625 L 131.308594 175.03125 Z M 0.386719 175.03125 " fill-opacity="1" fill-rule="nonzero"/></g></g></g></g></g></g><g clip-path="url(#9f2546f507)"><g transform="matrix(1, 0, 0, 1, 106, 105)"><g clip-path="url(#b38477dea2)"><g clip-path="url(#1f776ed884)"><path fill="#ffffff" d="M 65.871094 10.867188 L 0.410156 10.867188 L 0.410156 0.808594 L 65.871094 0.808594 Z M 65.871094 10.867188 " fill-opacity="1" fill-rule="nonzero"/></g></g></g></g><g clip-path="url(#7bbecd836d)"><g transform="matrix(1, 0, 0, 1, 117, 91)"><g clip-path="url(#ec418540c3)"><g clip-path="url(#89a9b88897)"><path fill="#ffffff" d="M 43.957031 8.550781 L 0.332031 8.550781 L 0.332031 0.5 L 43.957031 0.5 Z M 43.957031 8.550781 " fill-opacity="1" fill-rule="nonzero"/></g></g></g></g><g clip-path="url(#f7dcbe8c53)"><g transform="matrix(1, 0, 0, 1, 128, 79)"><g clip-path="url(#a9305b40b9)"><g clip-path="url(#8c80462675)"><path fill="#ffffff" d="M 22.027344 6.285156 L 0.269531 6.285156 L 0.269531 0.234375 L 22.027344 0.234375 Z M 22.027344 6.285156 " fill-opacity="1" fill-rule="nonzero"/></g></g></g></g><g clip-path="url(#af3c054216)"><g clip-path="url(#3c88a07328)"><g transform="matrix(1, 0, 0, 1, 73, 126)"><g clip-path="url(#aec1c4c758)"><g clip-path="url(#33fb51652c)"><g clip-path="url(#ca19385477)"><path fill="#ffffff" d="M 131.609375 0.96875 L 131.609375 175.359375 L 0.6875 175.359375 L 0.6875 0.96875 Z M 131.609375 0.96875 " fill-opacity="1" fill-rule="nonzero"/></g></g></g></g></g></g></g></g></svg>