<svg xmlns="http://www.w3.org/2000/svg" xmlns:xlink="http://www.w3.org/1999/xlink" width="500" zoomAndPan="magnify" viewBox="0 0 375 374.999991" height="500" preserveAspectRatio="xMidYMid meet" version="1.0"><defs><clipPath id="24187e8072"><path d="M 187.5 0 C 83.945312 0 0 83.945312 0 187.5 C 0 291.054688 83.945312 375 187.5 375 C 291.054688 375 375 291.054688 375 187.5 C 375 83.945312 291.054688 0 187.5 0 Z M 187.5 0 " clip-rule="nonzero"/></clipPath><clipPath id="bee1ecc677"><path d="M 0 0 L 375 0 L 375 375 L 0 375 Z M 0 0 " clip-rule="nonzero"/></clipPath><clipPath id="06d572b734"><path d="M 187.5 0 C 83.945312 0 0 83.945312 0 187.5 C 0 291.054688 83.945312 375 187.5 375 C 291.054688 375 375 291.054688 375 187.5 C 375 83.945312 291.054688 0 187.5 0 Z M 187.5 0 " clip-rule="nonzero"/></clipPath><clipPath id="f220716c8e"><rect x="0" width="375" y="0" height="375"/></clipPath><clipPath id="63d84fde77"><path d="M 98 155 L 152 155 L 152 210 L 98 210 Z M 98 155 " clip-rule="nonzero"/></clipPath><clipPath id="6cc2a30ebc"><path d="M 105.238281 155.644531 L 151.523438 201.929688 L 144.410156 209.042969 L 98.125 162.757812 Z M 105.238281 155.644531 " clip-rule="nonzero"/></clipPath><clipPath id="16a474afcd"><path d="M 0.078125 0.441406 L 53.601562 0.441406 L 53.601562 54.199219 L 0.078125 54.199219 Z M 0.078125 0.441406 " clip-rule="nonzero"/></clipPath><clipPath id="ef09f59482"><path d="M 7.238281 0.644531 L 53.523438 46.929688 L 46.410156 54.042969 L 0.125 7.757812 Z M 7.238281 0.644531 " clip-rule="nonzero"/></clipPath><clipPath id="66be164eec"><rect x="0" width="54" y="0" height="55"/></clipPath><clipPath id="68aebc8fc5"><path d="M 95 174 L 133 174 L 133 212 L 95 212 Z M 95 174 " clip-rule="nonzero"/></clipPath><clipPath id="831739ca9b"><path d="M 101.425781 174.898438 L 132.265625 205.738281 L 126.574219 211.433594 L 95.730469 180.589844 Z M 101.425781 174.898438 " clip-rule="nonzero"/></clipPath><clipPath id="4817a0e0c1"><path d="M 0.679688 0.878906 L 37.398438 0.878906 L 37.398438 37.601562 L 0.679688 37.601562 Z M 0.679688 0.878906 " clip-rule="nonzero"/></clipPath><clipPath id="7936880866"><path d="M 6.425781 0.898438 L 37.265625 31.738281 L 31.574219 37.433594 L 0.730469 6.589844 Z M 6.425781 0.898438 " clip-rule="nonzero"/></clipPath><clipPath id="cee538bbb3"><rect x="0" width="38" y="0" height="38"/></clipPath><clipPath id="49136c4982"><path d="M 94 192 L 115 192 L 115 213 L 94 213 Z M 94 192 " clip-rule="nonzero"/></clipPath><clipPath id="4439e6c176"><path d="M 99.0625 192.710938 L 114.457031 208.101562 L 110.179688 212.378906 L 94.785156 196.988281 Z M 99.0625 192.710938 " clip-rule="nonzero"/></clipPath><clipPath id="cd8eb907f5"><path d="M 0.71875 0.640625 L 20.640625 0.640625 L 20.640625 20.558594 L 0.71875 20.558594 Z M 0.71875 0.640625 " clip-rule="nonzero"/></clipPath><clipPath id="178d401de8"><path d="M 5.0625 0.710938 L 20.457031 16.101562 L 16.179688 20.378906 L 0.785156 4.988281 Z M 5.0625 0.710938 " clip-rule="nonzero"/></clipPath><clipPath id="6d2e8e8fe7"><rect x="0" width="21" y="0" height="21"/></clipPath><clipPath id="b51c0718f9"><path d="M 113 47 L 260 47 L 260 195 L 113 195 Z M 113 47 " clip-rule="nonzero"/></clipPath><clipPath id="a58823fe47"><path d="M 89.949219 124.644531 L 213.625 0.96875 L 306.199219 93.542969 L 182.523438 217.21875 Z M 89.949219 124.644531 " clip-rule="nonzero"/></clipPath><clipPath id="54cae38da1"><path d="M 259.671875 47.496094 L 167.09375 47.496094 L 190.238281 70.640625 L 113.09375 147.789062 L 159.378906 194.074219 L 236.527344 116.929688 L 259.671875 140.074219 Z M 259.671875 47.496094 " clip-rule="nonzero"/></clipPath><clipPath id="eee57b13c9"><path d="M 0 0.441406 L 146.839844 0.441406 L 146.839844 147.078125 L 0 147.078125 Z M 0 0.441406 " clip-rule="nonzero"/></clipPath><clipPath id="89b156c708"><path d="M -23.050781 77.644531 L 100.625 -46.03125 L 193.199219 46.542969 L 69.523438 170.21875 Z M -23.050781 77.644531 " clip-rule="nonzero"/></clipPath><clipPath id="40628b7cf9"><path d="M 146.671875 0.496094 L 54.09375 0.496094 L 77.238281 23.640625 L 0.09375 100.789062 L 46.378906 147.074219 L 123.527344 69.929688 L 146.671875 93.074219 Z M 146.671875 0.496094 " clip-rule="nonzero"/></clipPath><clipPath id="7915994c57"><rect x="0" width="147" y="0" height="148"/></clipPath><clipPath id="956bceb3f5"><path d="M 207 149 L 261 149 L 261 204 L 207 204 Z M 207 149 " clip-rule="nonzero"/></clipPath><clipPath id="027ccdd28d"><path d="M 253.75 203.355469 L 207.464844 157.070312 L 214.578125 149.957031 L 260.863281 196.242188 Z M 253.75 203.355469 " clip-rule="nonzero"/></clipPath><clipPath id="54ead51e24"><path d="M 0.28125 0.921875 L 54 0.921875 L 54 54.441406 L 0.28125 54.441406 Z M 0.28125 0.921875 " clip-rule="nonzero"/></clipPath><clipPath id="d8d95c4095"><path d="M 46.75 54.355469 L 0.464844 8.070312 L 7.578125 0.957031 L 53.863281 47.242188 Z M 46.75 54.355469 " clip-rule="nonzero"/></clipPath><clipPath id="5f2e8d89f8"><rect x="0" width="54" y="0" height="55"/></clipPath><clipPath id="a95b69d097"><path d="M 226 147 L 264 147 L 264 185 L 226 185 Z M 226 147 " clip-rule="nonzero"/></clipPath><clipPath id="9737e35da8"><path d="M 257.566406 184.101562 L 226.726562 153.257812 L 232.417969 147.566406 L 263.261719 178.40625 Z M 257.566406 184.101562 " clip-rule="nonzero"/></clipPath><clipPath id="28949b8504"><path d="M 0.71875 0.519531 L 37.441406 0.519531 L 37.441406 37.238281 L 0.71875 37.238281 Z M 0.71875 0.519531 " clip-rule="nonzero"/></clipPath><clipPath id="e435a8b3fc"><path d="M 31.566406 37.101562 L 0.726562 6.257812 L 6.417969 0.566406 L 37.261719 31.40625 Z M 31.566406 37.101562 " clip-rule="nonzero"/></clipPath><clipPath id="42233c3921"><rect x="0" width="38" y="0" height="38"/></clipPath><clipPath id="9b6a44bc62"><path d="M 244 146 L 265 146 L 265 167 L 244 167 Z M 244 146 " clip-rule="nonzero"/></clipPath><clipPath id="fb76107122"><path d="M 259.929688 166.285156 L 244.539062 150.894531 L 248.8125 146.617188 L 264.207031 162.007812 Z M 259.929688 166.285156 " clip-rule="nonzero"/></clipPath><clipPath id="8261d6b4ba"><path d="M 0.480469 0.558594 L 20.398438 0.558594 L 20.398438 20.480469 L 0.480469 20.480469 Z M 0.480469 0.558594 " clip-rule="nonzero"/></clipPath><clipPath id="3255c2cb08"><path d="M 15.929688 20.285156 L 0.539062 4.894531 L 4.8125 0.617188 L 20.207031 16.007812 Z M 15.929688 20.285156 " clip-rule="nonzero"/></clipPath><clipPath id="2e8c62f7a1"><rect x="0" width="21" y="0" height="21"/></clipPath><clipPath id="ad465298fd"><path d="M 99 164 L 246 164 L 246 312 L 99 312 Z M 99 164 " clip-rule="nonzero"/></clipPath><clipPath id="c496148208"><path d="M 269.050781 234.355469 L 145.375 358.03125 L 52.800781 265.457031 L 176.476562 141.78125 Z M 269.050781 234.355469 " clip-rule="nonzero"/></clipPath><clipPath id="d496768da9"><path d="M 99.328125 311.503906 L 191.90625 311.503906 L 168.761719 288.359375 L 245.90625 211.210938 L 199.621094 164.925781 L 122.472656 242.070312 L 99.328125 218.925781 Z M 99.328125 311.503906 " clip-rule="nonzero"/></clipPath><clipPath id="d8969eda57"><path d="M 0.28125 0.800781 L 146.921875 0.800781 L 146.921875 147.679688 L 0.28125 147.679688 Z M 0.28125 0.800781 " clip-rule="nonzero"/></clipPath><clipPath id="75493334e4"><path d="M 170.050781 70.355469 L 46.375 194.03125 L -46.199219 101.457031 L 77.476562 -22.21875 Z M 170.050781 70.355469 " clip-rule="nonzero"/></clipPath><clipPath id="c0628bd6b5"><path d="M 0.328125 147.503906 L 92.90625 147.503906 L 69.761719 124.359375 L 146.90625 47.210938 L 100.621094 0.925781 L 23.472656 78.070312 L 0.328125 54.925781 Z M 0.328125 147.503906 " clip-rule="nonzero"/></clipPath><clipPath id="ad8aed872a"><rect x="0" width="147" y="0" height="148"/></clipPath><clipPath id="290d90e82f"><rect x="0" width="359" y="0" height="359"/></clipPath></defs><g clip-path="url(#24187e8072)"><g transform="matrix(1, 0, 0, 1, 0, 0)"><g clip-path="url(#f220716c8e)"><g clip-path="url(#bee1ecc677)"><g clip-path="url(#06d572b734)"><rect x="-82.5" width="540" fill="#efb100" height="539.999987" y="-82.499998" fill-opacity="1"/></g></g></g></g></g><g transform="matrix(1, 0, 0, 1, 8, 8)"><g clip-path="url(#290d90e82f)"><g clip-path="url(#63d84fde77)"><g clip-path="url(#6cc2a30ebc)"><g transform="matrix(1, 0, 0, 1, 98, 155)"><g clip-path="url(#66be164eec)"><g clip-path="url(#16a474afcd)"><g clip-path="url(#ef09f59482)"><path fill="#ffffff" d="M 7.238281 0.644531 L 53.527344 46.933594 L 46.414062 54.046875 L 0.125 7.757812 Z M 7.238281 0.644531 " fill-opacity="1" fill-rule="nonzero"/></g></g></g></g></g></g><g clip-path="url(#68aebc8fc5)"><g clip-path="url(#831739ca9b)"><g transform="matrix(1, 0, 0, 1, 95, 174)"><g clip-path="url(#cee538bbb3)"><g clip-path="url(#4817a0e0c1)"><g clip-path="url(#7936880866)"><path fill="#ffffff" d="M 6.425781 0.898438 L 37.269531 31.742188 L 31.578125 37.4375 L 0.730469 6.589844 Z M 6.425781 0.898438 " fill-opacity="1" fill-rule="nonzero"/></g></g></g></g></g></g><g clip-path="url(#49136c4982)"><g clip-path="url(#4439e6c176)"><g transform="matrix(1, 0, 0, 1, 94, 192)"><g clip-path="url(#6d2e8e8fe7)"><g clip-path="url(#cd8eb907f5)"><g clip-path="url(#178d401de8)"><path fill="#ffffff" d="M 5.0625 0.710938 L 20.449219 16.097656 L 16.171875 20.375 L 0.785156 4.988281 Z M 5.0625 0.710938 " fill-opacity="1" fill-rule="nonzero"/></g></g></g></g></g></g><g clip-path="url(#b51c0718f9)"><g clip-path="url(#a58823fe47)"><g clip-path="url(#54cae38da1)"><g transform="matrix(1, 0, 0, 1, 113, 47)"><g clip-path="url(#7915994c57)"><g clip-path="url(#eee57b13c9)"><g clip-path="url(#89b156c708)"><g clip-path="url(#40628b7cf9)"><path fill="#ffffff" d="M -23.050781 77.644531 L 100.261719 -45.671875 L 192.839844 46.90625 L 69.523438 170.21875 Z M -23.050781 77.644531 " fill-opacity="1" fill-rule="nonzero"/></g></g></g></g></g></g></g></g><g clip-path="url(#956bceb3f5)"><g clip-path="url(#027ccdd28d)"><g transform="matrix(1, 0, 0, 1, 207, 149)"><g clip-path="url(#5f2e8d89f8)"><g clip-path="url(#54ead51e24)"><g clip-path="url(#d8d95c4095)"><path fill="#ffffff" d="M 46.75 54.355469 L 0.460938 8.066406 L 7.574219 0.953125 L 53.863281 47.242188 Z M 46.75 54.355469 " fill-opacity="1" fill-rule="nonzero"/></g></g></g></g></g></g><g clip-path="url(#a95b69d097)"><g clip-path="url(#9737e35da8)"><g transform="matrix(1, 0, 0, 1, 226, 147)"><g clip-path="url(#42233c3921)"><g clip-path="url(#28949b8504)"><g clip-path="url(#e435a8b3fc)"><path fill="#ffffff" d="M 31.566406 37.101562 L 0.722656 6.253906 L 6.414062 0.5625 L 37.261719 31.40625 Z M 31.566406 37.101562 " fill-opacity="1" fill-rule="nonzero"/></g></g></g></g></g></g><g clip-path="url(#9b6a44bc62)"><g clip-path="url(#fb76107122)"><g transform="matrix(1, 0, 0, 1, 244, 146)"><g clip-path="url(#2e8c62f7a1)"><g clip-path="url(#8261d6b4ba)"><g clip-path="url(#3255c2cb08)"><path fill="#ffffff" d="M 15.929688 20.285156 L 0.542969 4.898438 L 4.820312 0.621094 L 20.207031 16.007812 Z M 15.929688 20.285156 " fill-opacity="1" fill-rule="nonzero"/></g></g></g></g></g></g><g clip-path="url(#ad465298fd)"><g clip-path="url(#c496148208)"><g clip-path="url(#d496768da9)"><g transform="matrix(1, 0, 0, 1, 99, 164)"><g clip-path="url(#ad8aed872a)"><g clip-path="url(#d8969eda57)"><g clip-path="url(#75493334e4)"><g clip-path="url(#c0628bd6b5)"><path fill="#ffffff" d="M 170.050781 70.355469 L 46.738281 193.667969 L -45.839844 101.09375 L 77.476562 -22.21875 Z M 170.050781 70.355469 " fill-opacity="1" fill-rule="nonzero"/></g></g></g></g></g></g></g></g></g></g></svg>